<svg width="24" height="25" viewBox="0 0 24 25" fill="none" xmlns="http://www.w3.org/2000/svg">
<g id="vuesax/outline/arrow-left">
<g id="arrow-left">
<path id="Vector" d="M12 23.6389C6.07 23.6389 1.25 18.8189 1.25 12.8889C1.25 6.95892 6.07 2.13892 12 2.13892C17.93 2.13892 22.75 6.95892 22.75 12.8889C22.75 18.8189 17.93 23.6389 12 23.6389ZM12 3.63892C6.9 3.63892 2.75 7.78892 2.75 12.8889C2.75 17.9889 6.9 22.1389 12 22.1389C17.1 22.1389 21.25 17.9889 21.25 12.8889C21.25 7.78892 17.1 3.63892 12 3.63892Z" fill="#12B76A"/>
<path id="Vector_2" d="M15.5 13.6389H9.5C9.09 13.6389 8.75 13.2989 8.75 12.8889C8.75 12.4789 9.09 12.1389 9.5 12.1389H15.5C15.91 12.1389 16.25 12.4789 16.25 12.8889C16.25 13.2989 15.91 13.6389 15.5 13.6389Z" fill="#12B76A"/>
<path id="Vector_3" d="M11.5004 16.6389C11.3104 16.6389 11.1204 16.5689 10.9704 16.4189L7.97043 13.4189C7.68043 13.1289 7.68043 12.6489 7.97043 12.3589L10.9704 9.35886C11.2604 9.06886 11.7404 9.06886 12.0304 9.35886C12.3204 9.64886 12.3204 10.1289 12.0304 10.4189L9.56043 12.8889L12.0304 15.3589C12.3204 15.6489 12.3204 16.1289 12.0304 16.4189C11.8804 16.5689 11.6904 16.6389 11.5004 16.6389Z" fill="#12B76A"/>
</g>
</g>
</svg>
